# xmcd
#
# Track frame offsets:
#	150
#	2879
#	11822
#	26623
#	38520
#	55892
#	74210
#	82231
#	94781
#	98121
#	119305
#	136587
#	150071
#	167830
#	191775
#
# Disc length: 3019 seconds
#
# Revision: 1
# Processed by: cddbd v1.5.2PL0 Copyright (c) Steve Scherf et al.
# Submitted via: EZCDAudioConverter 9.1.1.1
#
DISCID=bf0bc90f
DTITLE=Iron Lasso - Live at Camp Rude 2003
DYEAR=2003
DGENRE=Bluegrass
TTITLE0=T.J.'s Intro
TTITLE1=Kentucky Mandolin
TTITLE2=Three Men On A Mountain
TTITLE3=Little Maggie
TTITLE4=One More Time
TTITLE5=Four Minutes Of Comedy
TTITLE6=Ready, Set, Go
TTITLE7=Big Country
TTITLE8=Lolita's Intro
TTITLE9=Cowboy's Sweetheart
TTITLE10=I Think We're Alone Now
TTITLE11=Dig A Hole
TTITLE12=Sweet Caroline
TTITLE13=Driving My Life Away
TTITLE14=Katy Daly
EXTD=
EXTT0=
EXTT1=
EXTT2=
EXTT3=
EXTT4=
EXTT5=
EXTT6=
EXTT7=
EXTT8=
EXTT9=
EXTT10=
EXTT11=
EXTT12=
EXTT13=
EXTT14=
PLAYORDER=
